<svg xmlns="http://www.w3.org/2000/svg" fill="none" viewBox="0 0 2320 400">
  <path d="M0 0h2320v400H0z"/>
  <path fill="#fff" d="M1994.78 351V61.425h58.73v81h140.13c23.76 0 41.85 5.67 54.27 17.01 12.69 11.07 19.03 27 19.03 47.79 0 34.02-16.2 54.27-48.6 60.75L2267.75 351h-66.01l-47.79-80.595h-100.44V351h-58.73Zm196.02-162.405h-137.29v35.64h137.29c5.4 0 9.59-1.62 12.56-4.86 3.24-3.24 4.86-7.695 4.86-13.365 0-11.61-5.81-17.415-17.42-17.415Zm-422.51 164.43c-36.18 0-64.4-8.91-84.65-26.73-20.25-18.09-30.37-44.55-30.37-79.38 0-35.1 10.12-61.56 30.37-79.38 20.25-18.09 48.47-27.135 84.65-27.135h74.92c36.18 0 64.4 9.045 84.65 27.135 20.25 17.82 30.37 44.28 30.37 79.38 0 34.83-10.12 61.29-30.37 79.38-20.25 17.82-48.47 26.73-84.65 26.73h-74.92Zm0-46.575h74.92c17.55 0 30.92-4.86 40.1-14.58 9.45-9.72 14.17-24.705 14.17-44.955 0-20.52-4.72-35.64-14.17-45.36-9.18-9.72-22.55-14.58-40.1-14.58h-74.92c-17.55 0-31.05 4.86-40.5 14.58-9.18 9.72-13.77 24.84-13.77 45.36 0 20.25 4.59 35.235 13.77 44.955 9.45 9.72 22.95 14.58 40.5 14.58Zm-333.41 46.575c-36.18 0-64.4-8.91-84.65-26.73-20.25-18.09-30.37-44.55-30.37-79.38 0-35.1 10.12-61.56 30.37-79.38 20.25-18.09 48.47-27.135 84.65-27.135h74.92c36.18 0 64.4 9.045 84.65 27.135 20.25 17.82 30.37 44.28 30.37 79.38 0 34.83-10.12 61.29-30.37 79.38-20.25 17.82-48.47 26.73-84.65 26.73h-74.92Zm0-46.575h74.92c17.55 0 30.92-4.86 40.1-14.58 9.45-9.72 14.17-24.705 14.17-44.955 0-20.52-4.72-35.64-14.17-45.36-9.18-9.72-22.55-14.58-40.1-14.58h-74.92c-17.55 0-31.05 4.86-40.5 14.58-9.18 9.72-13.77 24.84-13.77 45.36 0 20.25 4.59 35.235 13.77 44.955 9.45 9.72 22.95 14.58 40.5 14.58Z"/>
  <path fill="#fff" d="M1492.35 278h-39.2c-9.19 0-16.25-2.563-21.19-7.688-4.81-5.126-7.21-13.027-7.21-23.705 0-10.821 2.4-18.793 7.21-23.919 4.94-5.125 12-7.688 21.19-7.688h39.2c9.19 0 16.18 2.563 20.98 7.688 4.95 5.126 7.42 13.098 7.42 23.919 0 10.678-2.47 18.579-7.42 23.705-4.8 5.125-11.79 7.688-20.98 7.688Zm333 0h-39.2c-9.19 0-16.25-2.563-21.19-7.688-4.81-5.126-7.21-13.027-7.21-23.705 0-10.821 2.4-18.793 7.21-23.919 4.94-5.125 12-7.688 21.19-7.688h39.2c9.19 0 16.18 2.563 20.98 7.688 4.95 5.126 7.42 13.098 7.42 23.919 0 10.678-2.47 18.579-7.42 23.705-4.8 5.125-11.79 7.688-20.98 7.688Zm-600.62 73V61.425h58.72V351h-58.72Zm-260.246 0V142.425h159.566c23.49 0 40.77 5.94 51.84 17.82 11.07 11.61 16.61 27 16.61 46.17v43.335h-59.54v-36.045c0-16.2-8.1-24.3-24.3-24.3h-84.64V351h-59.536Zm-211.068 2.025c-36.18 0-64.395-8.91-84.645-26.73-20.25-18.09-30.375-44.55-30.375-79.38 0-35.1 10.125-61.56 30.375-79.38 20.25-18.09 48.465-27.135 84.645-27.135h101.25c23.76 0 41.85 5.67 54.27 17.01 12.69 11.07 19.035 27 19.035 47.79 0 42.39-24.435 63.585-73.305 63.585h-153.09c5.67 25.11 22.95 37.665 51.84 37.665h164.025v46.575H753.416Zm0-166.05c-27.81 0-44.955 11.745-51.435 35.235h149.85c5.4 0 9.585-1.62 12.555-4.86 3.24-3.24 4.86-7.695 4.86-13.365 0-11.34-5.805-17.01-17.415-17.01h-98.415Zm-415.578 166.05V306.45h198.45c11.34 0 17.01-6.345 17.01-19.035 0-12.42-5.67-18.63-17.01-18.63H407.903c-24.03 0-42.255-5.4-54.675-16.2-12.42-11.07-18.63-26.865-18.63-47.385 0-20.79 6.21-36.72 18.63-47.79 12.69-11.34 30.915-17.01 54.675-17.01h184.68v46.575H410.738c-11.61 0-17.415 5.67-17.415 17.01 0 5.67 1.62 10.125 4.86 13.365s7.425 4.86 12.555 4.86h136.08c21.06 0 37.125 5.535 48.195 16.605 11.34 10.8 17.01 26.595 17.01 47.385 0 21.06-5.67 37.53-17.01 49.41-11.34 11.61-27.405 17.415-48.195 17.415h-208.98ZM120.445 351c-23.76 0-41.175-5.94-52.245-17.82C57.4 321.3 52 305.91 52 287.01V142.425h58.725v137.7c0 16.2 8.1 24.3 24.3 24.3h84.24c16.2 0 24.3-8.1 24.3-24.3v-137.7h58.725V287.01c0 18.9-5.535 34.29-16.605 46.17-10.8 11.88-28.08 17.82-51.84 17.82h-113.4ZM1585.3 129c19.64 0 35.45-18.279 25.46-35.1813-4.4-7.4398-9.83-14.0011-16.29-19.6837C1574.22 56.045 1546.01 47 1509.83 47h-74.93c-36.18 0-64.39 9.045-84.64 27.135-6.5 5.718-11.96 12.3256-16.37 19.8227-9.92 16.8483 5.98 35.0423 25.53 35.0423 14.02 0 25.35-10.646 34.98-20.845 9.45-9.72 22.95-14.58 40.5-14.58h74.93c17.55 0 30.91 4.86 40.09 14.58 9.86 10.143 21.23 20.845 35.38 20.845Zm333 0c19.64 0 35.45-18.279 25.46-35.1813-4.4-7.4398-9.83-14.0011-16.29-19.6837C1907.22 56.045 1879.01 47 1842.83 47h-74.93c-36.18 0-64.39 9.045-84.64 27.135-6.5 5.718-11.96 12.3256-16.37 19.8227-9.92 16.8483 5.98 35.0423 25.53 35.0423 14.02 0 25.35-10.646 34.98-20.845 9.45-9.72 22.95-14.58 40.5-14.58h74.93c17.55 0 30.91 4.86 40.09 14.58 9.86 10.143 21.23 20.845 35.38 20.845Z"/>
</svg>
